<?xml version="1.0" encoding="utf-8"?>
<!-- Generator: Adobe Illustrator 21.1.0, SVG Export Plug-In . SVG Version: 6.00 Build 0)  -->
<svg version="1.1" id="Layer_1" xmlns="http://www.w3.org/2000/svg" xmlns:xlink="http://www.w3.org/1999/xlink" x="0px" y="0px"
	 width="90px" height="32px" viewBox="0 0 90 32" style="enable-background:new 0 0 90 32;" xml:space="preserve">
<style type="text/css">
	.st0{fill:#F68C51;}
</style>
<path class="st0" d="M16.9,16.3l0.4,2.1h-2.1l0.3-1.7c0.2-0.9,0.3-1.8,0.5-2.6c0.1-0.8,0.2-1.6,0.3-2.4
	C16.4,13.3,16.6,14.8,16.9,16.3z M32,2.4v27.2c0,1.3-1.1,2.4-2.4,2.4H2.4C1.1,32,0,30.9,0,29.6V2.4C0,1.1,1.1,0,2.4,0h27.2
	C30.9,0,32,1.1,32,2.4z M19.8,22.4L17,9h-1.4l-2.9,13.4l-2.5-6.8L12.6,9h-1.8L10,11.8l-0.1,0.4c-0.1,0.3-0.2,0.6-0.2,0.8
	c-0.1,0.3-0.1,0.6-0.2,0.9c-0.1-0.5-0.3-1.2-0.7-2.2L7.8,9H6.1l2.4,6.6l-2.5,6.8h1.9L8.6,20l0.2-0.5l0.3-1c0.1-0.4,0.2-0.7,0.2-1.1
	c0,0.3,0.1,0.7,0.2,1.1c0.1,0.4,0.3,0.9,0.4,1.4l0.9,2.6h1.8h0h1.7l0.5-2.6h2.7l0.5,2.6H19.8z M25.7,9h-4.8v13.4h1.8v-6.1h2.7v-1.5
	h-2.7v-4.2h3V9z"/>
<g>
	<path class="st0" d="M38.4,24.1V22c1.1,0.9,2.2,1.3,3.3,1.3c0.9,0,1.5-0.3,2-0.8c0.5-0.5,0.7-1.2,0.7-2c0-0.7-0.2-1.4-0.5-1.9
		c-0.3-0.5-1.1-1.2-2.2-2c-1.2-0.8-2-1.6-2.5-2.3c-0.5-0.8-0.8-1.7-0.8-2.7c0-1.4,0.4-2.5,1.3-3.4C40.5,7.4,41.6,7,42.9,7
		c1.1,0,2,0.2,2.8,0.6v1.9c-0.9-0.6-1.8-0.8-2.8-0.8c-0.8,0-1.4,0.3-1.9,0.8c-0.5,0.5-0.7,1.2-0.7,2c0,0.7,0.2,1.4,0.5,1.9
		s1.1,1.2,2.2,1.9c1.2,0.8,2.1,1.6,2.6,2.4s0.7,1.7,0.7,2.7c0,1.4-0.4,2.5-1.2,3.3s-2,1.3-3.5,1.3C40.4,25,39.3,24.7,38.4,24.1z"/>
	<path class="st0" d="M50.5,18.1v6.6h-1.9V7.3h4c1.5,0,2.7,0.4,3.5,1.3c0.8,0.9,1.2,2.2,1.2,3.8c0,1.6-0.5,3-1.4,4.1
		c-0.9,1.1-2.2,1.6-3.7,1.6H50.5z M50.5,8.9v7.5h1.7c1.1,0,1.9-0.3,2.4-1c0.6-0.7,0.8-1.6,0.8-2.8c0-2.4-1-3.7-3.1-3.7H50.5z"/>
	<path class="st0" d="M66.7,24.7l-1.4-5h-5.4l-1.4,5h-2l5.1-17.4h2l5,17.4H66.7z M62.9,10.9c0-0.2-0.1-0.7-0.3-1.6h0l-0.1,0.3
		c-0.1,0.6-0.2,1-0.3,1.3l-2,7.2h4.6L62.9,10.9z"/>
	<path class="st0" d="M83,17.6c0,4.9-1.7,7.4-5.1,7.4c-3.4,0-5.1-2.4-5.1-7.2V7.3h1.9v10.6c0,3.6,1.1,5.5,3.3,5.5
		c2.1,0,3.2-1.8,3.2-5.3V7.3H83V17.6z"/>
	<path class="st0" d="M86,24.7V7.3h1.9v17.4H86z"/>
</g>
</svg>
